<svg width="34" height="34" viewBox="0 0 34 34" fill="none" xmlns="http://www.w3.org/2000/svg">
<path d="M18.5793 29.4484H13.0238V12.8008H18.5793V15.5754C19.7635 14.0706 21.5594 13.1734 23.4752 13.1296C26.9204 13.1487 29.7004 15.9491 29.6905 19.3905V29.4484H24.1349V20.0841C23.9127 18.534 22.5818 17.3839 21.014 17.3872C20.3283 17.4089 19.681 17.7088 19.2216 18.2177C18.7621 18.7266 18.5302 19.4006 18.5793 20.0841V29.4484ZM10.246 29.4484H4.69043V12.8008H10.246V29.4484ZM7.46821 10.0262C5.93408 10.0262 4.69043 8.78401 4.69043 7.25165C4.69043 5.71928 5.93408 4.47705 7.46821 4.47705C9.00233 4.47705 10.246 5.71928 10.246 7.25165C10.246 7.98751 9.95333 8.69324 9.43239 9.21358C8.91146 9.73392 8.20492 10.0262 7.46821 10.0262Z" fill="#2E3A59"/>
</svg>
