<svg width="50" height="50" viewBox="0 0 50 50" fill="none" xmlns="http://www.w3.org/2000/svg">
<path d="M25.0003 0C11.1929 0 0.000366211 11.1925 0.000366211 25C0.000366211 38.8075 11.1929 50 25.0003 50C38.8078 50 50.0003 38.8075 50.0003 25C50.0003 11.1925 38.8078 0 25.0003 0Z" fill="url(#paint0_linear)"/>
<path d="M28.6856 31.5037H35.2652L36.2986 24.8874H28.6856V21.2709C28.6856 18.5227 29.5932 16.0853 32.1902 16.0853H36.3635V10.3121C35.63 10.2139 34.0792 10 31.1491 10C25.0297 10 21.4424 13.1987 21.4424 20.487V24.8886H15.1514V31.505H21.4411V49.6904C22.6869 49.8742 23.9492 50 25.2445 50C26.4153 50 27.558 49.8943 28.6856 49.7433V31.5037Z" fill="white"/>
<defs>
<linearGradient id="paint0_linear" x1="7.49161" y1="7.49125" x2="45.7691" y2="45.7687" gradientUnits="userSpaceOnUse">
<stop stop-color="#2AA4F4"/>
<stop offset="1" stop-color="#007AD9"/>
</linearGradient>
</defs>
</svg>
