<svg width="30" height="30" viewBox="0 0 30 30" fill="none" xmlns="http://www.w3.org/2000/svg">
<path fill-rule="evenodd" clip-rule="evenodd" d="M21.1742 3.75C22.8505 3.75 24.463 4.4125 25.6492 5.60125C26.8367 6.7875 27.5005 8.3875 27.5005 10.0625V19.9375C27.5005 23.425 24.663 26.25 21.1742 26.25H8.82549C5.33674 26.25 2.50049 23.425 2.50049 19.9375V10.0625C2.50049 6.575 5.32424 3.75 8.82549 3.75H21.1742ZM23.163 11.925L23.263 11.825C23.5617 11.4625 23.5617 10.9375 23.2492 10.575C23.0755 10.3887 22.8367 10.275 22.588 10.25C22.3255 10.2362 22.0755 10.325 21.8867 10.5L16.2505 15C15.5255 15.6012 14.4867 15.6012 13.7505 15L8.12547 10.5C7.73672 10.2125 7.19922 10.25 6.87547 10.5875C6.53797 10.925 6.50047 11.4625 6.78672 11.8375L6.95047 12L12.638 16.4375C13.338 16.9875 14.1867 17.2875 15.0755 17.2875C15.9617 17.2875 16.8255 16.9875 17.5242 16.4375L23.163 11.925Z" fill="#05386B"/>
</svg>
