<svg width="30" height="30" viewBox="0 0 30 30" fill="none" xmlns="http://www.w3.org/2000/svg">
<path fill-rule="evenodd" clip-rule="evenodd" d="M21.9034 9.24392V11.1604C24.0563 11.8323 25.625 13.7811 25.625 16.1086V22.279C25.625 25.1605 23.2358 27.4968 20.2903 27.4968H9.711C6.7642 27.4968 4.375 25.1605 4.375 22.279V16.1086C4.375 13.7811 5.94493 11.8323 8.09661 11.1604V9.24392C8.10931 5.51783 11.1958 2.49969 14.9809 2.49969C18.8169 2.49969 21.9034 5.51783 21.9034 9.24392ZM15.0064 4.67324C17.5848 4.67324 19.6806 6.72259 19.6806 9.24391V10.8908H10.3194V9.21907C10.3321 6.71017 12.4279 4.67324 15.0064 4.67324ZM16.1114 20.5663C16.1114 21.1749 15.616 21.6593 14.9937 21.6593C14.384 21.6593 13.8886 21.1749 13.8886 20.5663V17.809C13.8886 17.2128 14.384 16.7284 14.9937 16.7284C15.616 16.7284 16.1114 17.2128 16.1114 17.809V20.5663Z" fill="#05386B"/>
</svg>
