<svg width="50" height="50" viewBox="0 0 50 50" fill="none" xmlns="http://www.w3.org/2000/svg">
<path d="M24.9998 0C11.1936 0 -0.000183105 11.369 -0.000183105 25.3914C-0.000183105 37.2895 8.06648 47.245 18.9415 50C18.8248 49.6572 18.7498 49.2594 18.7498 48.7664V44.4266C17.7352 44.4266 16.0352 44.4266 15.6081 44.4266C13.8977 44.4266 12.3769 43.6796 11.6394 42.2916C10.8206 40.749 10.679 38.3898 8.64981 36.9467C8.04773 36.4664 8.50606 35.9183 9.19981 35.9924C10.4811 36.3606 11.5436 37.2535 12.5436 38.5781C13.5394 39.9048 14.0081 40.2052 15.8686 40.2052C16.7706 40.2052 18.1206 40.1523 19.3915 39.9492C20.0748 38.1866 21.2561 36.5637 22.6998 35.7977C14.3748 34.9281 10.4019 30.7215 10.4019 25.0106C10.4019 22.5518 11.4331 20.1735 13.1852 18.1697C12.6102 16.1807 11.8873 12.1244 13.4061 10.5798C17.1519 10.5798 19.4165 13.047 19.9602 13.7135C21.8269 13.0639 23.8769 12.6957 26.031 12.6957C28.1894 12.6957 30.2477 13.0639 32.1185 13.7177C32.656 13.0554 34.9227 10.5798 38.6769 10.5798C40.2019 12.1265 39.4706 16.1997 38.8894 18.1845C40.631 20.1841 41.656 22.5561 41.656 25.0106C41.656 30.7173 37.6894 34.9217 29.3769 35.7956C31.6644 37.008 33.3331 40.4147 33.3331 42.9814V48.7664C33.3331 48.9865 33.2852 49.1452 33.2602 49.3335C43.0019 45.8654 49.9998 36.4706 49.9998 25.3914C49.9998 11.369 38.806 0 24.9998 0Z" fill="black"/>
</svg>
