<svg width="50" height="50" viewBox="0 0 50 50" fill="none" xmlns="http://www.w3.org/2000/svg">
<path d="M49.5137 20.1037H47.5V20H25V30H39.1287C37.0675 35.8212 31.5287 40 25 40C16.7162 40 9.99999 33.2837 9.99999 25C9.99999 16.7162 16.7162 10 25 10C28.8237 10 32.3025 11.4425 34.9512 13.7987L42.0225 6.7275C37.5575 2.56625 31.585 0 25 0C11.1937 0 0 11.1937 0 25C0 38.8062 11.1937 50 25 50C38.8062 50 50 38.8062 50 25C50 23.3237 49.8275 21.6875 49.5137 20.1037Z" fill="#FBC02D"/>
<path d="M24.6375 49.9999C30.9065 49.9999 36.6028 47.4816 40.9095 43.3862L33.3979 36.7139C30.9611 38.6514 27.9322 39.8093 24.6375 39.8093C18.3247 39.8093 12.9646 35.584 10.9453 29.6874L3.03076 36.0884C7.04751 44.339 15.2048 49.9999 24.6375 49.9999Z" fill="#4CAF50"/>
<path d="M49.4994 20.4158L49.4788 20.3125H47.4246H24.2428V30.2709H38.7997C37.7797 33.0556 35.9264 35.4568 33.5361 37.2058C33.5374 37.2045 33.5387 37.2045 33.54 37.2033L41.512 43.7236C40.9479 44.219 50.0004 37.7398 50.0004 25.2917C50.0004 23.6224 49.8226 21.993 49.4994 20.4158Z" fill="#1565C0"/>
</svg>
