<svg width="909" height="216" viewBox="0 0 909 216" fill="none" xmlns="http://www.w3.org/2000/svg">
<path d="M883.021 188.913L905.34 151.786L883.01 192.952L882.997 197.176C881.405 197.16 879.83 197.1 878.27 196.996C878.263 196.037 880.16 143.264 880.08 142.309C880.19 142.273 880.252 137.318 880.295 137.101L856.979 96.5293L880.32 133.261L880.39 134.347L881.774 93.3458L861.731 51.3589L881.933 86.1415C881.94 85.5836 882.889 1.39872 882.899 0.879272C882.904 1.1552 883.34 67.8738 883.343 68.155L902.512 41.2998L883.324 73.9256L883.226 110.621L901.015 75.1363C878.815 126.886 883.728 108.777 883.161 136.421L909 87.0103L883.139 143.539L883.021 188.913Z" fill="#D0CDE1"/>
<path d="M453.465 215.815C703.411 215.815 906.032 206.624 906.032 195.286C906.032 183.949 703.411 174.758 453.465 174.758C203.52 174.758 0.898926 183.949 0.898926 195.286C0.898926 206.624 203.52 215.815 453.465 215.815Z" fill="#D0CDE1"/>
</svg>
