<svg width="129" height="262" viewBox="0 0 129 262" fill="none" xmlns="http://www.w3.org/2000/svg">
<path d="M27.9321 177.77L33.3179 163.213C33.4324 162.906 33.6162 162.646 33.8475 162.463C34.0789 162.281 34.348 162.184 34.6229 162.183H48.0079C48.3872 162.183 48.751 162.369 49.0192 162.698C49.2874 163.027 49.4381 163.474 49.4381 163.94V179.668C49.4378 179.906 49.3983 180.142 49.3219 180.36C49.2454 180.579 49.1337 180.777 48.9934 180.941C48.8531 181.105 48.6871 181.233 48.5055 181.316C48.3239 181.399 48.1305 181.436 47.9369 181.425L29.1628 180.249C28.93 180.235 28.7037 180.151 28.5034 180.005C28.3032 179.858 28.1351 179.654 28.0138 179.409C27.8924 179.165 27.8216 178.888 27.8074 178.602C27.7931 178.316 27.8359 178.031 27.9321 177.77Z" fill="#4C4C56"/>
<path d="M1.92592 121.902L16.8391 120.374C17.057 120.339 17.2784 120.391 17.4698 120.524C17.6613 120.656 17.8125 120.862 17.9007 121.109L32.0025 160.319L24.1317 182.023C24.3785 181.342 24.5611 186.641 22.7794 182.048L0.367321 124.614C0.0664204 123.846 1.22607 122.01 1.92592 121.902Z" fill="#4C4C56"/>
<path opacity="0.15" d="M1.92592 121.902L16.8391 120.374C17.057 120.339 17.2784 120.391 17.4698 120.524C17.6613 120.656 17.8125 120.862 17.9007 121.109L32.0025 160.319L24.1317 182.023C24.3785 181.342 24.5611 186.641 22.7794 182.048L0.367321 124.614C0.0664204 123.846 1.22607 122.01 1.92592 121.902Z" fill="black"/>
<path d="M1.92622 121.902L17.5968 119.444C17.8147 119.408 18.036 119.461 18.2274 119.593C18.4189 119.726 18.5701 119.931 18.6584 120.179L32.7635 159.388L24.2301 182.916L1.12495 123.684C1.05414 123.504 1.01946 123.307 1.0238 123.107C1.02814 122.908 1.07139 122.713 1.14991 122.538C1.22843 122.364 1.33991 122.215 1.475 122.104C1.6101 121.993 1.76484 121.924 1.92622 121.902Z" fill="#4C4C56"/>
<path d="M5.83767 124.66L17.1671 122.492C17.3936 122.448 17.6256 122.5 17.8251 122.639C18.0247 122.778 18.18 122.995 18.2659 123.257L30.1329 158.915C30.1815 159.061 30.2048 159.217 30.2013 159.375C30.1979 159.532 30.1676 159.687 30.1126 159.829L24.6795 173.775C24.6057 173.969 24.4884 174.133 24.3414 174.248C24.1944 174.363 24.0237 174.424 23.8495 174.424C23.6752 174.424 23.5046 174.363 23.3576 174.248C23.2105 174.133 23.0933 173.969 23.0195 173.775L5.07021 126.43C5.00183 126.254 4.96804 126.06 4.97156 125.865C4.97508 125.67 5.01581 125.479 5.09047 125.307C5.16512 125.135 5.27163 124.987 5.40141 124.874C5.53119 124.762 5.68062 124.689 5.83767 124.66Z" fill="#4BA07E"/>
<path d="M41.8088 221.869L37.1072 238.455L30.7267 232.283L34.0849 219.17L41.8088 221.869Z" fill="#FFB9B9"/>
<path d="M102.255 151.285L100.576 177.127L59.9423 178.284L42.1439 224.955L32.4052 220.327C32.4052 220.327 43.4872 176.356 48.5244 162.47C53.5617 148.585 72.7033 158.613 72.7033 158.613L74.3824 154.756L102.255 151.285Z" fill="black"/>
<path d="M39.1218 235.369C39.1218 235.369 38.4502 247.712 37.4427 248.484C36.4353 249.255 28.7114 247.712 28.7114 247.712C28.7114 247.712 26.3907 248.304 16.9578 245.398C6.35297 242.13 18.3011 237.298 18.3011 237.298C18.3011 237.298 26.0249 231.512 29.3831 228.812C32.7413 226.112 35.092 231.898 35.092 231.898C34.4204 234.212 39.1218 235.369 39.1218 235.369Z" fill="black"/>
<path d="M115.123 47.6475C116.902 50.3784 117.98 53.6277 118.233 57.0264C118.595 61.1635 119.65 67.7806 122.719 71.2587C127.394 76.5578 128.953 80.5321 128.953 80.5321L127.394 82.5193C127.394 78.545 125.316 77.8826 125.316 77.8826L125.836 82.5193C111.809 97.7542 80.6377 83.8441 80.6377 83.8441L81.6767 71.9211C79.0791 73.2459 78.0401 82.5193 78.0401 82.5193L73.884 81.1945C73.884 81.1945 81.1572 66.622 85.8329 53.3742C90.5085 40.1264 97.7818 43.4383 97.7818 43.4383C106.354 38.176 112.016 43.056 115.123 47.6475Z" fill="black"/>
<path d="M66.3232 54.4714L61.286 16.6718C61.286 16.6718 66.6591 1.62907 57.592 0.0862319C48.5249 -1.45661 54.5696 18.2146 54.5696 18.2146L57.592 54.4714H66.3232Z" fill="#FFB9B9"/>
<path d="M70.353 232.284C68.6739 235.369 68.3381 251.183 68.3381 251.183L56.5845 242.698L59.9426 228.812L70.353 232.284Z" fill="#FFB9B9"/>
<path d="M86.8079 149.356C86.8079 149.356 101.584 149.356 109.644 154.756C112.234 156.492 112.986 159.622 112.813 163.072C112.362 172.082 105.955 179.199 98.1114 179.756L75.39 181.37C78.7482 192.17 71.0244 234.212 71.0244 234.212L58.9349 232.284C58.9349 232.284 60.614 218.013 60.2782 217.241C59.9423 216.47 56.92 186.384 58.9349 170.57C60.9498 154.756 88.4869 161.313 88.4869 161.313L86.8079 149.356Z" fill="black"/>
<path d="M69.0101 247.712C69.0101 247.712 70.0175 258.898 69.6817 260.441C69.3459 261.984 55.5773 262.755 43.152 258.512C30.7268 254.269 44.8311 249.641 44.8311 249.641C44.8311 249.641 53.2266 243.084 55.5773 240.769C57.928 238.455 61.2862 243.855 61.2862 243.855C61.9579 247.327 69.0101 247.712 69.0101 247.712Z" fill="black"/>
<path d="M89.6508 69.8089C88.5813 62.2391 93.0571 55.1068 99.6477 53.8784C106.238 52.65 112.448 57.7907 113.518 65.3605C114.587 72.9303 110.111 80.0626 103.521 81.291C96.9301 82.5194 90.7203 77.3787 89.6508 69.8089Z" fill="#FFB9B9"/>
<path d="M106.621 77.9998C102.255 85.3283 107.629 89.5711 107.629 89.5711L109.979 109.628C109.979 109.628 84.7929 112.328 80.4273 108.471C76.0616 104.614 85.4645 91.8854 88.8227 90.7282C92.1809 89.5711 92.8525 73.757 92.8525 73.757L106.621 77.9998Z" fill="#FFB9B9"/>
<path d="M105.964 87.5159L119.215 85.1352L120.726 101.528C120.726 101.528 120.054 138.17 120.726 144.727C121.398 151.284 109.308 158.613 109.308 158.613C109.308 158.613 91.8456 157.07 88.4874 155.142C85.1292 153.213 74.383 157.07 74.383 157.07C73.1859 157.147 71.9875 156.95 70.8569 156.492C68.842 155.72 76.0621 100.756 76.0621 100.756L82.4427 83.7852L90.1665 87.2566L92.5172 99.9851L105.964 87.5159Z" fill="#62F2AD"/>
<path d="M77.4044 100.371L63.9717 80.6994L54.5689 54.0855L67.6658 48.3002L73.0392 70.2855L82.442 83.3998L82.7778 85.7138L77.4044 100.371Z" fill="#62F2AD"/>
<path d="M119.732 130.315L86.4625 131.753C86.4625 131.753 74.0636 123.907 71.6953 134.077C69.327 144.248 87.0313 139.593 87.0313 139.593L118.737 140.278L119.732 130.315Z" fill="#FFB9B9"/>
<path d="M116.863 127.563L101.415 128.721L99.4 140.678C99.4 140.678 118.206 140.292 125.594 139.906C132.982 139.52 125.594 103.649 124.586 92.8495C123.579 82.0496 118.542 85.1353 118.542 85.1353L115.519 87.8353L116.863 127.563Z" fill="#62F2AD"/>
<path opacity="0.15" d="M114.177 123.706L100.744 129.878L115.52 126.406L116.528 104.42L114.177 123.706Z" fill="black"/>
<path d="M88.8178 62.9629L110.998 63.5694L113.638 50.8317H88.8178V62.9629Z" fill="black"/>
</svg>
