<svg width="50" height="50" viewBox="0 0 50 50" fill="none" xmlns="http://www.w3.org/2000/svg">
<path d="M50 43.0556C50 46.8917 46.8916 50 43.0555 50H6.94444C3.10972 50 0 46.8917 0 43.0556V6.94444C0 3.10833 3.10972 0 6.94444 0H43.0555C46.8916 0 50 3.10833 50 6.94444V43.0556Z" fill="#0078D4"/>
<path opacity="0.05" d="M32.6347 43.3342V29.092C32.6347 26.71 31.4892 25.2871 29.569 25.2871C28.4291 25.2871 27.5913 25.9344 27.0809 27.2107C27.0571 27.3009 27.0235 27.669 27.0375 28.7817L27.0403 43.3342H17.2501V16.5393H27.0403V18.0356C28.4697 17.0413 30.2221 16.5393 32.2683 16.5393C38.6277 16.5393 42.4235 20.9012 42.4235 28.2077L42.4249 43.3342H32.6347ZM6.06128 43.3342V16.5393H10.8962C8.09484 16.5393 6.06128 14.4634 6.06128 11.602C6.06128 8.74338 8.12841 6.66748 10.976 6.66748C13.7899 6.66748 15.7941 8.68556 15.8515 11.5738C15.8515 14.4563 13.783 16.5393 10.9354 16.5393H15.8515V43.3342H6.06128Z" fill="black"/>
<path opacity="0.07" d="M34.0611 41.6676V28.869C34.0611 26.2383 32.624 24.605 30.3086 24.605C28.5035 24.605 27.6114 25.821 27.182 26.841C27.0677 27.1063 27.0831 28.1596 27.0886 28.609L27.0914 41.6676H18.7278V17.6676H27.0914V19.8516C28.1996 18.7543 29.9839 17.6676 32.9989 17.6676C38.8995 17.6676 42.4234 21.5423 42.4234 28.033L42.4248 41.6676H34.0611ZM7.57629 41.6676V17.6676H15.9399V41.6676H7.57629ZM11.6982 16.3343C9.31035 16.3343 7.57629 14.6516 7.57629 12.333C7.57629 10.0156 9.34381 8.33429 11.7776 8.33429C14.1808 8.33429 15.8911 9.97296 15.9399 12.3196C15.9399 14.6516 14.1724 16.3343 11.7372 16.3343H11.6982Z" fill="black"/>
<path d="M7.57629 18.0565H14.5207V41.6676H7.57629V18.0565ZM11.0277 15.2787H10.9888C8.91657 15.2787 7.57629 13.7343 7.57629 11.8051C7.57629 9.83429 8.95824 8.33429 11.068 8.33429C13.1805 8.33429 14.4818 9.83429 14.5207 11.8051C14.5207 13.7329 13.1805 15.2787 11.0277 15.2787ZM40.9096 41.6676H33.9652V29.0301C33.9652 25.9773 32.2638 23.894 29.5318 23.894C27.4471 23.894 26.3193 25.2996 25.7721 26.6579C25.5721 27.144 25.6318 28.4885 25.6318 29.1676V41.6676H18.6874V18.0565H25.6318V21.6898C26.6332 20.1398 28.2013 18.0565 32.2124 18.0565C37.1818 18.0565 40.9082 21.1815 40.9082 28.1593L40.9096 41.6676Z" fill="white"/>
</svg>
