<svg width="1399" height="706" viewBox="0 0 1399 706" fill="none" xmlns="http://www.w3.org/2000/svg">
<g opacity="0.05">
<path opacity="0.05" d="M266.05 687.524C265.961 687.472 265.886 687.403 265.831 687.321C265.775 687.239 265.74 687.147 265.728 687.051L265.693 687.11C265.693 687.11 265.363 687.854 265.941 688.187C266.005 688.224 266.067 688.263 266.125 688.299C266.229 688.281 266.343 688.267 266.449 688.242C266.921 688.141 266.618 687.863 266.05 687.524Z" fill="black"/>
<path opacity="0.05" d="M270.044 673.572C269.912 673.898 269.828 674.24 269.796 674.587C269.864 674.35 269.955 674.12 270.069 673.898C270.069 673.898 270.074 673.765 270.044 673.572Z" fill="black"/>
<path opacity="0.05" d="M278.109 672.122C278.132 672.022 278.143 671.92 278.141 671.819C278.096 672.025 278.067 672.218 278.044 672.385C278.064 672.298 278.084 672.211 278.109 672.122Z" fill="black"/>
<path opacity="0.05" d="M269.96 683.392C270.029 683.194 270.059 682.987 270.049 682.779C269.938 683.024 269.879 683.287 269.878 683.552C269.898 683.496 269.926 683.442 269.96 683.392Z" fill="black"/>
</g>
<path opacity="0.1" d="M288.838 692.684C301.673 692.684 312.078 691.702 312.078 690.492C312.078 689.281 301.673 688.299 288.838 688.299C276.004 688.299 265.599 689.281 265.599 690.492C265.599 691.702 276.004 692.684 288.838 692.684Z" fill="#62F2AD"/>
<path d="M298.182 671.819H265.599V705.535H298.182V671.819Z" fill="white"/>
<path d="M943.465 704.815C1193.41 704.815 1396.03 695.624 1396.03 684.286C1396.03 672.948 1193.41 663.757 943.465 663.757C693.52 663.757 490.899 672.948 490.899 684.286C490.899 695.624 693.52 704.815 943.465 704.815Z" fill="#D0CDE1"/>
<path d="M492.43 704.815C686.107 704.815 843.113 695.903 843.113 684.909C843.113 673.916 686.107 665.004 492.43 665.004C298.753 665.004 141.747 673.916 141.747 684.909C141.747 695.903 298.753 704.815 492.43 704.815Z" fill="#D0CDE1"/>
<path d="M1373.02 677.913L1395.34 640.786L1373.01 681.952L1373 686.176C1371.41 686.16 1369.83 686.1 1368.27 685.996C1368.26 685.037 1370.16 632.264 1370.08 631.309C1370.19 631.273 1370.25 626.318 1370.3 626.101L1346.98 585.529L1370.32 622.261L1370.39 623.347L1371.77 582.346L1351.73 540.359L1371.93 575.141C1371.94 574.584 1372.89 490.399 1372.9 489.879C1372.9 490.155 1373.34 556.874 1373.34 557.155L1392.51 530.3L1373.32 562.926L1373.23 599.621L1391.02 564.136C1368.82 615.886 1373.73 597.777 1373.16 625.421L1399 576.01L1373.14 632.539L1373.02 677.913Z" fill="#D0CDE1"/>
<path d="M943.465 704.815C1193.41 704.815 1396.03 695.624 1396.03 684.286C1396.03 672.949 1193.41 663.758 943.465 663.758C693.52 663.758 490.899 672.949 490.899 684.286C490.899 695.624 693.52 704.815 943.465 704.815Z" fill="#D0CDE1"/>
<path d="M449.683 704.334C643.36 704.334 800.367 695.422 800.367 684.429C800.367 673.435 643.36 664.523 449.683 664.523C256.006 664.523 99 673.435 99 684.429C99 695.422 256.006 704.334 449.683 704.334Z" fill="#D0CDE1"/>
<path d="M508.762 648.299L588.259 520.292L508.721 662.223L508.675 676.787C503.006 676.733 497.394 676.526 491.839 676.167C491.814 672.86 498.571 490.91 498.284 487.619C498.676 487.494 498.896 470.41 499.052 469.662L416 329.78L499.141 456.423L499.389 460.167L504.321 318.804L432.929 174.042L504.886 293.965C504.912 292.041 508.291 1.79093 508.325 0C508.345 0.951316 509.896 230.982 509.907 231.952L578.185 139.361L509.842 251.847L509.493 378.366L572.854 256.021C493.78 434.443 511.279 372.006 509.26 467.318L601.296 296.96L509.181 491.86L508.762 648.299Z" fill="#D0CDE1"/>
<path d="M286.951 686.769C368.402 686.769 434.431 681.09 434.431 674.084C434.431 667.078 368.402 661.398 286.951 661.398C205.5 661.398 139.471 667.078 139.471 674.084C139.471 681.09 205.5 686.769 286.951 686.769Z" fill="#E6E6E6"/>
<path d="M402.17 681.188C378.122 676.004 351.825 676.866 324.24 681.188C336.813 668.333 347.664 655.478 335.091 642.624C359.616 648.751 363.051 648.131 390.332 642.624C384.005 655.478 395.842 668.333 402.17 681.188Z" fill="#62F2AD"/>
<path opacity="0.2" d="M402.17 681.188C378.122 676.004 351.825 676.866 324.24 681.188C336.813 668.333 347.664 655.478 335.091 642.624C359.616 648.751 363.051 648.131 390.332 642.624C384.005 655.478 395.842 668.333 402.17 681.188Z" fill="black"/>
<path d="M396.304 675.704C375.877 671.566 353.538 672.254 330.106 675.704C340.786 665.443 350.003 655.182 339.323 644.921C360.156 649.812 363.074 649.317 386.249 644.921C380.874 655.182 390.929 665.443 396.304 675.704Z" fill="#62F2AD"/>
<path d="M388.524 659.171C394.535 659.171 399.408 653.269 399.408 645.989C399.408 638.709 394.535 632.807 388.524 632.807C382.512 632.807 377.639 638.709 377.639 645.989C377.639 653.269 382.512 659.171 388.524 659.171Z" fill="black"/>
<path d="M339.114 630.699L346.655 632.222L350.426 645.414L339.533 653.533L326.963 630.699H338.695H339.114Z" fill="#A0616A"/>
<path d="M360.482 650.996C370.2 650.996 378.079 641.455 378.079 629.685C378.079 617.914 370.2 608.373 360.482 608.373C350.763 608.373 342.885 617.914 342.885 629.685C342.885 641.455 350.763 650.996 360.482 650.996Z" fill="#A0616A"/>
<path d="M263.279 552.049C263.279 552.049 220.543 557.631 213.002 556.616C205.46 555.601 202.108 554.586 202.108 554.586C202.108 554.586 197.08 562.705 199.594 566.257C201.002 568.304 202.706 570.023 204.622 571.331C204.622 571.331 209.231 569.809 212.583 571.331C215.934 572.853 249.872 579.45 255.737 573.361C261.603 567.272 263.279 552.049 263.279 552.049Z" fill="black"/>
<path d="M266.212 665.204C266.212 665.204 238.14 655.563 233.112 612.94V608.88C233.112 608.88 227.558 620.681 225.571 623.088C223.266 625.879 215.096 650.996 215.515 653.533C215.934 656.07 215.515 657.085 215.515 657.085L203.365 655.563V650.996C203.365 650.996 209.859 627.401 210.278 621.819C210.697 616.238 226.409 577.42 226.409 577.42C226.409 577.42 232.274 562.705 242.33 577.42C252.385 592.135 253.223 602.284 253.223 602.284L266.212 632.729L266.212 665.204Z" fill="black"/>
<path d="M203.365 553.064L189.958 547.482C189.958 547.482 177.388 536.319 180.321 547.482C183.254 558.646 196.661 583.002 200.432 580.465C204.203 577.928 208.738 571.63 207.727 570.719C206.717 569.809 200.013 563.212 203.365 553.064Z" fill="black"/>
<path d="M204.986 648.001L194.163 654.402C194.163 654.402 181.074 656.841 188.374 661.413C195.673 665.986 215.809 670.863 216.815 666.595C217.822 662.328 217.423 655.245 216.364 655.433C215.305 655.621 208.006 656.536 204.986 648.001Z" fill="black"/>
<path d="M260.765 631.714C260.765 631.714 255.318 660.13 264.536 666.219C273.753 672.308 338.276 673.323 343.304 662.16C348.331 650.996 345.817 650.996 345.817 650.996L332.41 632.729L343.304 631.714C343.304 631.714 343.304 627.655 339.533 627.148C335.762 626.64 324.031 621.566 313.975 625.118C303.92 628.67 298.054 618.014 298.054 618.014L260.765 631.714Z" fill="#05386B"/>
<path d="M253.642 542.915L246.52 590.106L295.54 583.002L304.339 540.378L253.642 542.915Z" fill="#3F3D56"/>
<path d="M255.109 544.692L249.243 586.807L293.864 580.465L302.453 542.155L255.109 544.692Z" fill="white"/>
<path d="M248.196 590.613L246.52 590.106L245.682 592.135L259.089 637.296L260.35 636.712L260.765 633.744L248.196 590.613Z" fill="#B3B3B3"/>
<path d="M246.52 589.598L259.927 636.789L310.623 627.655L295.54 583.002L246.52 589.598Z" fill="#D0CDE1"/>
<path d="M253.223 588.076V590.613L290.512 585.539L290.093 583.002L253.223 588.076Z" fill="#3F3D56"/>
<path d="M254.061 593.15L259.927 612.94L298.054 607.358L291.351 588.584L254.061 593.15Z" fill="#3F3D56"/>
<path d="M301.825 621.058L300.568 616.999C300.568 616.999 290.931 596.702 285.904 600.762C280.876 604.821 296.378 624.61 296.378 624.61H301.406L301.825 621.058Z" fill="#A0616A"/>
<path d="M269.983 624.103L268.726 618.014C268.726 618.014 265.374 599.239 271.239 600.254C277.105 601.269 278.781 619.029 278.781 619.029L278.362 623.088L269.983 624.103Z" fill="#A0616A"/>
<path d="M280.038 621.566C280.038 621.566 269.144 619.536 268.726 622.581C268.307 625.625 266.212 671.293 276.686 672.815C287.161 674.338 339.114 680.934 333.667 665.204C328.22 649.474 319.841 651.504 319.841 651.504L284.228 656.07L280.038 621.566Z" fill="#05386B"/>
<path d="M312.928 627.401L301.825 618.014L294.493 624.864L303.71 637.042L312.928 627.401Z" fill="#05386B"/>
<path opacity="0.2" d="M283.18 636.535L284.856 655.817L313.766 653.787L288.627 653.28L283.18 636.535Z" fill="black"/>
<path d="M369.168 658.928C380.738 658.928 390.117 647.569 390.117 633.557C390.117 619.545 380.738 608.186 369.168 608.186C357.598 608.186 348.219 619.545 348.219 633.557C348.219 647.569 357.598 658.928 369.168 658.928Z" fill="black"/>
<path d="M261.393 559.407L287.37 558.312L289.884 546.721L263.069 547.701L261.393 559.407Z" fill="#62F2AD"/>
<path d="M254.69 566.004L294.074 564.481L294.493 562.451L255.109 564.131L254.69 566.004Z" fill="#E6E6E6"/>
<path d="M253.852 571.077L293.236 569.555L293.655 567.525L254.271 569.205L253.852 571.077Z" fill="#E6E6E6"/>
<path d="M253.433 575.137L292.817 573.615L293.236 571.585L253.852 573.264L253.433 575.137Z" fill="#E6E6E6"/>
<path d="M3.24883 246.1H19.2488L31.7488 291.3L44.0488 246.1H55.7488L67.6488 291.3L80.1488 246.1H96.0488L76.4488 316H62.1488L49.6488 271.7L37.2488 316H22.8488L3.24883 246.1ZM132.165 317.5C122.965 317.5 115.732 315.3 110.465 310.9C105.199 306.433 102.565 300.2 102.565 292.2C102.565 284.267 104.899 278 109.565 273.4C114.299 268.8 121.032 266.5 129.765 266.5C135.499 266.5 140.365 267.567 144.365 269.7C148.365 271.833 151.399 274.8 153.465 278.6C155.532 282.333 156.565 286.567 156.565 291.3V297.4H116.965C118.032 303.533 123.765 306.6 134.165 306.6C137.232 306.6 140.399 306.333 143.665 305.8C146.932 305.267 149.765 304.533 152.165 303.6V314.2C149.832 315.2 146.832 316 143.165 316.6C139.499 317.2 135.832 317.5 132.165 317.5ZM142.265 287.6C142.065 284.4 140.865 281.933 138.665 280.2C136.465 278.4 133.432 277.5 129.565 277.5C125.765 277.5 122.765 278.4 120.565 280.2C118.365 282 117.165 284.467 116.965 287.6H142.265ZM164.917 242.1H180.017V316H164.917V242.1ZM216.903 317.5C208.236 317.5 201.336 315.3 196.203 310.9C191.069 306.433 188.503 300.167 188.503 292.1C188.503 284.033 191.069 277.767 196.203 273.3C201.403 268.767 208.336 266.5 217.003 266.5C224.869 266.5 231.136 267.967 235.803 270.9V282.8C233.669 281.267 231.169 280.133 228.303 279.4C225.503 278.667 222.536 278.3 219.403 278.3C214.736 278.3 211.003 279.433 208.203 281.7C205.403 283.967 204.003 287.433 204.003 292.1C204.003 296.767 205.369 300.233 208.103 302.5C210.903 304.7 214.636 305.8 219.303 305.8C225.769 305.8 231.469 304.233 236.403 301.1V312.9C231.469 315.967 224.969 317.5 216.903 317.5ZM270.235 317.5C264.435 317.5 259.335 316.467 254.935 314.4C250.601 312.267 247.235 309.3 244.835 305.5C242.501 301.633 241.335 297.133 241.335 292C241.335 287 242.501 282.567 244.835 278.7C247.235 274.833 250.601 271.833 254.935 269.7C259.335 267.567 264.435 266.5 270.235 266.5C275.968 266.5 281.001 267.567 285.335 269.7C289.735 271.833 293.101 274.833 295.435 278.7C297.835 282.567 299.035 287 299.035 292C299.035 297.133 297.835 301.633 295.435 305.5C293.101 309.3 289.768 312.267 285.435 314.4C281.101 316.467 276.035 317.5 270.235 317.5ZM270.235 305.7C274.301 305.7 277.535 304.467 279.935 302C282.335 299.467 283.535 296.133 283.535 292C283.535 287.733 282.335 284.4 279.935 282C277.601 279.533 274.368 278.3 270.235 278.3C266.101 278.3 262.835 279.533 260.435 282C258.035 284.4 256.835 287.733 256.835 292C256.835 296.133 258.035 299.467 260.435 302C262.901 304.467 266.168 305.7 270.235 305.7ZM307.495 268H321.595V273.8C323.662 271.467 326.062 269.667 328.795 268.4C331.528 267.133 334.362 266.5 337.295 266.5C340.962 266.5 343.895 267.1 346.095 268.3C348.295 269.433 350.028 271.133 351.295 273.4C353.362 271.2 355.862 269.5 358.795 268.3C361.795 267.1 364.762 266.5 367.695 266.5C373.828 266.5 378.195 268.067 380.795 271.2C383.462 274.333 384.795 278.867 384.795 284.8V316H370.395V286.9C370.395 283.833 369.795 281.633 368.595 280.3C367.395 278.967 365.462 278.3 362.795 278.3C359.062 278.3 356.062 279.767 353.795 282.7C353.928 284.833 353.995 286.567 353.995 287.9V316H339.495V286.4C339.495 283.467 338.962 281.4 337.895 280.2C336.895 278.933 335.128 278.3 332.595 278.3C328.662 278.3 325.162 280.533 322.095 285V316H307.495V268ZM422.4 317.5C413.2 317.5 405.966 315.3 400.7 310.9C395.433 306.433 392.8 300.2 392.8 292.2C392.8 284.267 395.133 278 399.8 273.4C404.533 268.8 411.266 266.5 420 266.5C425.733 266.5 430.6 267.567 434.6 269.7C438.6 271.833 441.633 274.8 443.7 278.6C445.766 282.333 446.8 286.567 446.8 291.3V297.4H407.2C408.266 303.533 414 306.6 424.4 306.6C427.466 306.6 430.633 306.333 433.9 305.8C437.166 305.267 440 304.533 442.4 303.6V314.2C440.066 315.2 437.066 316 433.4 316.6C429.733 317.2 426.066 317.5 422.4 317.5ZM432.5 287.6C432.3 284.4 431.1 281.933 428.9 280.2C426.7 278.4 423.666 277.5 419.8 277.5C416 277.5 413 278.4 410.8 280.2C408.6 282 407.4 284.467 407.2 287.6H432.5ZM110.603 468.5C106.869 468.5 103.536 467.967 100.603 466.9C97.7361 465.833 95.0694 464.133 92.6027 461.8V467H78.0027V393.1H93.1027V423.3C95.2361 421.433 97.8361 420 100.903 419C103.969 418 107.203 417.5 110.603 417.5C115.603 417.5 120.003 418.6 123.803 420.8C127.669 422.933 130.669 425.933 132.803 429.8C134.936 433.667 136.003 438.1 136.003 443.1C136.003 448.167 134.936 452.633 132.803 456.5C130.669 460.3 127.669 463.267 123.803 465.4C120.003 467.467 115.603 468.5 110.603 468.5ZM106.803 456.8C110.869 456.8 114.169 455.567 116.703 453.1C119.303 450.567 120.603 447.233 120.603 443.1C120.603 438.967 119.303 435.633 116.703 433.1C114.169 430.567 110.869 429.3 106.803 429.3C103.669 429.3 100.836 430.167 98.3027 431.9C95.8361 433.567 94.1027 435.767 93.1027 438.5V447.6C94.1694 450.4 95.9361 452.633 98.4027 454.3C100.869 455.967 103.669 456.8 106.803 456.8ZM159.868 468.5C154.001 468.5 149.201 467.033 145.468 464.1C141.801 461.1 139.968 457.033 139.968 451.9C139.968 446.567 141.734 442.433 145.268 439.5C148.801 436.5 153.801 435 160.268 435C163.134 435 165.868 435.3 168.468 435.9C171.068 436.5 173.368 437.333 175.368 438.4V437.2C175.368 434.2 174.301 432 172.168 430.6C170.034 429.2 166.768 428.5 162.368 428.5C156.501 428.5 151.101 429.6 146.168 431.8V420.8C148.301 419.867 151.068 419.1 154.468 418.5C157.868 417.833 161.268 417.5 164.668 417.5C173.334 417.5 179.801 419.3 184.068 422.9C188.334 426.433 190.468 431.4 190.468 437.8V467H176.268V462.6C172.201 466.533 166.734 468.5 159.868 468.5ZM163.968 458.5C166.434 458.5 168.668 458.033 170.668 457.1C172.668 456.167 174.234 454.867 175.368 453.2V448.4C171.968 446.133 168.234 445 164.168 445C161.368 445 159.201 445.6 157.668 446.8C156.201 447.933 155.468 449.633 155.468 451.9C155.468 454.033 156.201 455.667 157.668 456.8C159.134 457.933 161.234 458.5 163.968 458.5ZM224.911 468.5C216.244 468.5 209.344 466.3 204.211 461.9C199.077 457.433 196.511 451.167 196.511 443.1C196.511 435.033 199.077 428.767 204.211 424.3C209.411 419.767 216.344 417.5 225.011 417.5C232.877 417.5 239.144 418.967 243.811 421.9V433.8C241.677 432.267 239.177 431.133 236.311 430.4C233.511 429.667 230.544 429.3 227.411 429.3C222.744 429.3 219.011 430.433 216.211 432.7C213.411 434.967 212.011 438.433 212.011 443.1C212.011 447.767 213.377 451.233 216.111 453.5C218.911 455.7 222.644 456.8 227.311 456.8C233.777 456.8 239.477 455.233 244.411 452.1V463.9C239.477 466.967 232.977 468.5 224.911 468.5ZM252.807 393.1H267.907V439.3L285.407 419H302.907L282.607 442.4L305.407 467H287.907L267.907 445.4V467H252.807V393.1ZM312.743 397.1H327.543V445.1H312.743V397.1ZM320.143 468.5C317.809 468.5 315.843 467.733 314.243 466.2C312.643 464.6 311.843 462.667 311.843 460.4C311.843 458.133 312.643 456.233 314.243 454.7C315.843 453.1 317.809 452.3 320.143 452.3C322.409 452.3 324.343 453.1 325.943 454.7C327.543 456.233 328.343 458.133 328.343 460.4C328.343 462.667 327.543 464.6 325.943 466.2C324.343 467.733 322.409 468.5 320.143 468.5ZM335.594 397.1H350.394V445.1H335.594V397.1ZM342.994 468.5C340.661 468.5 338.694 467.733 337.094 466.2C335.494 464.6 334.694 462.667 334.694 460.4C334.694 458.133 335.494 456.233 337.094 454.7C338.694 453.1 340.661 452.3 342.994 452.3C345.261 452.3 347.194 453.1 348.794 454.7C350.394 456.233 351.194 458.133 351.194 460.4C351.194 462.667 350.394 464.6 348.794 466.2C347.194 467.733 345.261 468.5 342.994 468.5ZM358.446 397.1H373.246V445.1H358.446V397.1ZM365.846 468.5C363.512 468.5 361.546 467.733 359.946 466.2C358.346 464.6 357.546 462.667 357.546 460.4C357.546 458.133 358.346 456.233 359.946 454.7C361.546 453.1 363.512 452.3 365.846 452.3C368.112 452.3 370.046 453.1 371.646 454.7C373.246 456.233 374.046 458.133 374.046 460.4C374.046 462.667 373.246 464.6 371.646 466.2C370.046 467.733 368.112 468.5 365.846 468.5Z" fill="#05386B"/>
</svg>
