<svg width="653" height="551" viewBox="0 0 653 551" fill="none" xmlns="http://www.w3.org/2000/svg">
<g filter="url(#filter0_d)">
<path d="M641.706 0H11C7.13401 0 4 3.13403 4 7.00002V535.042C4 538.908 7.13399 542.042 11 542.042H641.706C645.572 542.042 648.706 538.908 648.706 535.042V7C648.706 3.13401 645.572 0 641.706 0Z" fill="#05386B"/>
</g>
<path d="M125.914 0C129.261 0 131.973 2.74038 131.801 6.08291C129.998 41.1857 116.952 74.3638 95.079 99.1272C71.9469 125.317 40.796 139.996 8.34385 140C5.91632 140 4 137.995 4 135.567V6C4 2.68629 6.68629 0 10 0H125.914Z" fill="#62F2AD"/>
<path d="M291 540H241C242.881 534.134 246.287 529.071 250.758 525.494C255.229 521.918 260.549 520 266 520C271.451 520 276.772 521.918 281.242 525.494C285.713 529.071 289.119 534.134 291 540Z" fill="#62F2AD"/>
<path d="M649.113 419.696V539.838C635.791 539.084 623.23 532.426 614.031 521.243C604.833 510.06 599.702 495.209 599.702 479.767C599.702 464.324 604.833 449.473 614.031 438.29C623.23 427.108 635.791 420.45 649.113 419.696Z" fill="#62F2AD"/>
<defs>
<filter id="filter0_d" x="0" y="0" width="652.706" height="550.042" filterUnits="userSpaceOnUse" color-interpolation-filters="sRGB">
<feFlood flood-opacity="0" result="BackgroundImageFix"/>
<feColorMatrix in="SourceAlpha" type="matrix" values="0 0 0 0 0 0 0 0 0 0 0 0 0 0 0 0 0 0 127 0"/>
<feOffset dy="4"/>
<feGaussianBlur stdDeviation="2"/>
<feColorMatrix type="matrix" values="0 0 0 0 0 0 0 0 0 0 0 0 0 0 0 0 0 0 0.25 0"/>
<feBlend mode="normal" in2="BackgroundImageFix" result="effect1_dropShadow"/>
<feBlend mode="normal" in="SourceGraphic" in2="effect1_dropShadow" result="shape"/>
</filter>
</defs>
</svg>
