<svg width="649" height="748" viewBox="0 0 649 748" fill="none" xmlns="http://www.w3.org/2000/svg">
<g filter="url(#filter0_d)">
<path d="M638 0H11C7.13401 0 4 3.13399 4 6.99998V733C4 736.866 7.13403 740 11 740H638C641.866 740 645 736.866 645 733V7C645 3.13401 641.866 0 638 0Z" fill="#05386B"/>
</g>
<path d="M249 740H199C200.881 734.09 204.287 728.99 208.758 725.387C213.229 721.784 218.549 719.852 224 719.852C229.451 719.852 234.772 721.784 239.242 725.387C243.713 728.99 247.119 734.09 249 740V740Z" fill="#62F2AD"/>
<path d="M645 568.738V686.881C631.789 686.14 619.332 679.593 610.21 668.596C601.088 657.599 596 642.995 596 627.809C596 612.624 601.088 598.02 610.21 587.023C619.332 576.026 631.789 569.479 645 568.738V568.738Z" fill="#62F2AD"/>
<path d="M125.913 0C129.261 0 131.972 2.74102 131.797 6.08376C129.979 40.7306 116.936 73.4743 95.079 97.9179C71.9469 123.788 40.796 138.288 8.34385 138.292V138.292C5.91667 138.292 4 136.288 4 133.861V6C4 2.68629 6.68629 0 10 0H125.913Z" fill="#62F2AD"/>
<defs>
<filter id="filter0_d" x="0" y="0" width="649" height="748" filterUnits="userSpaceOnUse" color-interpolation-filters="sRGB">
<feFlood flood-opacity="0" result="BackgroundImageFix"/>
<feColorMatrix in="SourceAlpha" type="matrix" values="0 0 0 0 0 0 0 0 0 0 0 0 0 0 0 0 0 0 127 0"/>
<feOffset dy="4"/>
<feGaussianBlur stdDeviation="2"/>
<feColorMatrix type="matrix" values="0 0 0 0 0 0 0 0 0 0 0 0 0 0 0 0 0 0 0.25 0"/>
<feBlend mode="normal" in2="BackgroundImageFix" result="effect1_dropShadow"/>
<feBlend mode="normal" in="SourceGraphic" in2="effect1_dropShadow" result="shape"/>
</filter>
</defs>
</svg>
