<svg width="1343" height="706" viewBox="0 0 1343 706" fill="none" xmlns="http://www.w3.org/2000/svg">
<path d="M1317.02 678.913L1339.34 641.786L1317.01 682.952L1317 687.176C1315.41 687.16 1313.83 687.1 1312.27 686.996C1312.26 686.037 1314.16 633.264 1314.08 632.309C1314.19 632.273 1314.25 627.318 1314.3 627.101L1290.98 586.529L1314.32 623.261L1314.39 624.347L1315.77 583.346L1295.73 541.359L1315.93 576.141C1315.94 575.584 1316.89 491.399 1316.9 490.879C1316.9 491.155 1317.34 557.874 1317.34 558.155L1336.51 531.3L1317.32 563.926L1317.23 600.621L1335.02 565.136C1312.82 616.886 1317.73 598.777 1317.16 626.421L1343 577.01L1317.14 633.539L1317.02 678.913Z" fill="#D0CDE1"/>
<path d="M887.465 705.815C1137.41 705.815 1340.03 696.624 1340.03 685.286C1340.03 673.949 1137.41 664.758 887.465 664.758C637.52 664.758 434.899 673.949 434.899 685.286C434.899 696.624 637.52 705.815 887.465 705.815Z" fill="#D0CDE1"/>
<path d="M393.683 705.334C587.36 705.334 744.367 696.422 744.367 685.429C744.367 674.435 587.36 665.523 393.683 665.523C200.006 665.523 43 674.435 43 685.429C43 696.422 200.006 705.334 393.683 705.334Z" fill="#D0CDE1"/>
<path d="M452.59 648.812L532.087 520.805L452.549 662.736L452.503 677.3C446.834 677.246 441.222 677.039 435.667 676.68C435.642 673.373 442.399 491.423 442.112 488.132C442.504 488.007 442.724 470.923 442.879 470.175L359.828 330.293L442.969 456.936L443.217 460.68L448.149 319.317L376.757 174.555L448.714 294.478C448.74 292.554 452.119 2.30393 452.153 0.513C452.173 1.46432 453.724 231.495 453.735 232.465L522.013 139.874L453.67 252.36L453.321 378.879L516.682 256.534C437.608 434.956 455.107 372.519 453.088 467.831L545.123 297.473L453.009 492.373L452.59 648.812Z" fill="#D0CDE1"/>
<g clip-path="url(#clip0)">
<path d="M230.951 687.769C312.402 687.769 378.431 682.09 378.431 675.084C378.431 668.078 312.402 662.398 230.951 662.398C149.5 662.398 83.4709 668.078 83.4709 675.084C83.4709 682.09 149.5 687.769 230.951 687.769Z" fill="#E6E6E6"/>
<path d="M346.17 682.188C322.122 677.004 295.825 677.866 268.24 682.188C280.813 669.333 291.664 656.478 279.091 643.624C303.616 649.751 307.051 649.131 334.332 643.624C328.005 656.478 339.842 669.333 346.17 682.188Z" fill="#62F2AD"/>
<path opacity="0.2" d="M346.17 682.188C322.122 677.004 295.825 677.866 268.24 682.188C280.813 669.333 291.664 656.478 279.091 643.624C303.616 649.751 307.051 649.131 334.332 643.624C328.005 656.478 339.842 669.333 346.17 682.188Z" fill="black"/>
<path d="M340.304 676.704C319.876 672.566 297.538 673.254 274.106 676.704C284.786 666.443 294.003 656.182 283.323 645.921C304.156 650.812 307.074 650.317 330.249 645.921C324.873 656.182 334.929 666.443 340.304 676.704Z" fill="#62F2AD"/>
<path d="M332.524 660.171C338.535 660.171 343.408 654.269 343.408 646.989C343.408 639.709 338.535 633.807 332.524 633.807C326.512 633.807 321.639 639.709 321.639 646.989C321.639 654.269 326.512 660.171 332.524 660.171Z" fill="black"/>
<path d="M283.114 631.699L290.655 633.222L294.426 646.414L283.533 654.533L270.963 631.699H282.695H283.114Z" fill="#A0616A"/>
<path d="M304.482 651.996C314.2 651.996 322.079 642.455 322.079 630.685C322.079 618.914 314.2 609.373 304.482 609.373C294.763 609.373 286.885 618.914 286.885 630.685C286.885 642.455 294.763 651.996 304.482 651.996Z" fill="#A0616A"/>
<path d="M207.279 553.049C207.279 553.049 164.543 558.631 157.002 557.616C149.46 556.601 146.108 555.586 146.108 555.586C146.108 555.586 141.08 563.705 143.594 567.257C145.002 569.304 146.706 571.023 148.622 572.331C148.622 572.331 153.231 570.809 156.583 572.331C159.934 573.853 193.872 580.45 199.737 574.361C205.603 568.272 207.279 553.049 207.279 553.049Z" fill="black"/>
<path d="M210.212 666.204C210.212 666.204 182.14 656.563 177.112 613.94V609.88C177.112 609.88 171.558 621.681 169.571 624.088C167.266 626.879 159.096 651.996 159.515 654.533C159.934 657.07 159.515 658.085 159.515 658.085L147.365 656.563V651.996C147.365 651.996 153.859 628.401 154.278 622.819C154.697 617.238 170.409 578.42 170.409 578.42C170.409 578.42 176.274 563.705 186.33 578.42C196.385 593.135 197.223 603.284 197.223 603.284L210.212 633.729L210.212 666.204Z" fill="black"/>
<path d="M147.365 554.064L133.958 548.482C133.958 548.482 121.388 537.319 124.321 548.482C127.254 559.646 140.661 584.002 144.432 581.465C148.203 578.928 152.738 572.63 151.727 571.719C150.717 570.809 144.013 564.212 147.365 554.064Z" fill="black"/>
<path d="M148.986 649.001L138.163 655.402C138.163 655.402 125.074 657.841 132.374 662.413C139.673 666.986 159.809 671.863 160.815 667.595C161.822 663.328 161.423 656.245 160.364 656.433C159.305 656.621 152.006 657.536 148.986 649.001Z" fill="black"/>
<path d="M204.765 632.714C204.765 632.714 199.318 661.13 208.536 667.219C217.753 673.308 282.276 674.323 287.304 663.16C292.331 651.996 289.817 651.996 289.817 651.996L276.41 633.729L287.304 632.714C287.304 632.714 287.304 628.655 283.533 628.148C279.762 627.64 268.031 622.566 257.975 626.118C247.92 629.67 242.054 619.014 242.054 619.014L204.765 632.714Z" fill="#05386B"/>
<path d="M197.642 543.915L190.52 591.106L239.54 584.002L248.339 541.378L197.642 543.915Z" fill="#3F3D56"/>
<path d="M199.109 545.692L193.243 587.807L237.864 581.465L246.453 543.155L199.109 545.692Z" fill="white"/>
<path d="M192.196 591.613L190.52 591.106L189.682 593.135L203.089 638.296L204.35 637.712L204.765 634.744L192.196 591.613Z" fill="#B3B3B3"/>
<path d="M190.52 590.598L203.927 637.789L254.623 628.655L239.54 584.002L190.52 590.598Z" fill="#D0CDE1"/>
<path d="M197.224 589.076V591.613L234.512 586.539L234.093 584.002L197.224 589.076Z" fill="#3F3D56"/>
<path d="M198.061 594.15L203.927 613.94L242.054 608.358L235.35 589.584L198.061 594.15Z" fill="#3F3D56"/>
<path d="M245.825 622.058L244.568 617.999C244.568 617.999 234.931 597.702 229.904 601.762C224.876 605.821 240.378 625.61 240.378 625.61H245.406L245.825 622.058Z" fill="#A0616A"/>
<path d="M213.983 625.103L212.726 619.014C212.726 619.014 209.374 600.239 215.239 601.254C221.105 602.269 222.781 620.029 222.781 620.029L222.362 624.088L213.983 625.103Z" fill="#A0616A"/>
<path d="M224.038 622.566C224.038 622.566 213.144 620.536 212.725 623.581C212.306 626.625 210.212 672.293 220.686 673.815C231.16 675.338 283.114 681.934 277.667 666.204C272.22 650.474 263.841 652.504 263.841 652.504L228.228 657.07L224.038 622.566Z" fill="#05386B"/>
<path d="M256.928 628.401L245.825 619.014L238.493 625.864L247.71 638.042L256.928 628.401Z" fill="#05386B"/>
<path opacity="0.2" d="M227.18 637.535L228.856 656.817L257.766 654.787L232.627 654.28L227.18 637.535Z" fill="black"/>
<path d="M313.168 659.928C324.738 659.928 334.117 648.569 334.117 634.557C334.117 620.545 324.738 609.186 313.168 609.186C301.598 609.186 292.219 620.545 292.219 634.557C292.219 648.569 301.598 659.928 313.168 659.928Z" fill="black"/>
<path d="M205.393 560.407L231.37 559.312L233.884 547.721L207.069 548.701L205.393 560.407Z" fill="#62F2AD"/>
<path d="M198.69 567.004L238.074 565.481L238.493 563.451L199.109 565.131L198.69 567.004Z" fill="#E6E6E6"/>
<path d="M197.852 572.077L237.236 570.555L237.655 568.525L198.271 570.205L197.852 572.077Z" fill="#E6E6E6"/>
<path d="M197.433 576.137L236.817 574.615L237.236 572.585L197.852 574.264L197.433 576.137Z" fill="#E6E6E6"/>
</g>
<path d="M13.4082 318.5C11.3415 318.5 9.14154 318.3 6.8082 317.9C4.54154 317.5 2.8082 317 1.6082 316.4V303.3C2.6082 303.767 3.87487 304.133 5.4082 304.4C6.94154 304.667 8.47487 304.8 10.0082 304.8C13.0082 304.8 15.2415 304.1 16.7082 302.7C18.1749 301.3 18.9082 299.1 18.9082 296.1V247.1H34.1082V297.5C34.1082 303.967 32.3082 309.1 28.7082 312.9C25.1082 316.633 20.0082 318.5 13.4082 318.5ZM71.1801 318.5C65.3801 318.5 60.2801 317.467 55.8801 315.4C51.5467 313.267 48.1801 310.3 45.7801 306.5C43.4467 302.633 42.2801 298.133 42.2801 293C42.2801 288 43.4467 283.567 45.7801 279.7C48.1801 275.833 51.5467 272.833 55.8801 270.7C60.2801 268.567 65.3801 267.5 71.1801 267.5C76.9134 267.5 81.9467 268.567 86.2801 270.7C90.6801 272.833 94.0467 275.833 96.3801 279.7C98.7801 283.567 99.9801 288 99.9801 293C99.9801 298.133 98.7801 302.633 96.3801 306.5C94.0467 310.3 90.7134 313.267 86.3801 315.4C82.0467 317.467 76.9801 318.5 71.1801 318.5ZM71.1801 306.7C75.2467 306.7 78.4801 305.467 80.8801 303C83.2801 300.467 84.4801 297.133 84.4801 293C84.4801 288.733 83.2801 285.4 80.8801 283C78.5467 280.533 75.3134 279.3 71.1801 279.3C67.0467 279.3 63.7801 280.533 61.3801 283C58.9801 285.4 57.7801 288.733 57.7801 293C57.7801 297.133 58.9801 300.467 61.3801 303C63.8467 305.467 67.1134 306.7 71.1801 306.7ZM116.74 261.6C114.407 261.6 112.44 260.833 110.84 259.3C109.24 257.767 108.44 255.833 108.44 253.5C108.44 251.233 109.24 249.333 110.84 247.8C112.44 246.2 114.407 245.4 116.74 245.4C119.074 245.4 121.04 246.2 122.64 247.8C124.24 249.333 125.04 251.233 125.04 253.5C125.04 255.833 124.24 257.767 122.64 259.3C121.04 260.833 119.074 261.6 116.74 261.6ZM109.14 269H124.34V317H109.14V269ZM135.393 269H149.993V274.9C152.193 272.433 154.793 270.6 157.793 269.4C160.86 268.133 164.06 267.5 167.393 267.5C173.927 267.5 178.793 269.267 181.993 272.8C185.26 276.267 186.893 280.967 186.893 286.9V317H171.793V288.6C171.793 282.4 168.927 279.3 163.193 279.3C160.66 279.3 158.293 279.933 156.093 281.2C153.893 282.4 152.027 284.2 150.493 286.6V317H135.393V269ZM250.978 318.5C244.444 318.5 239.544 316.733 236.278 313.2C233.011 309.6 231.378 304.833 231.378 298.9V269H246.478V297.3C246.478 303.567 249.378 306.7 255.178 306.7C257.711 306.7 260.078 306.1 262.278 304.9C264.478 303.7 266.311 301.9 267.778 299.5V269H282.878V317H268.278V311.2C266.144 313.667 263.544 315.5 260.478 316.7C257.478 317.9 254.311 318.5 250.978 318.5ZM313.101 318.5C309.501 318.5 305.635 318.1 301.501 317.3C297.435 316.567 294.235 315.5 291.901 314.1V302.3C294.568 303.9 297.768 305.2 301.501 306.2C305.235 307.2 308.701 307.7 311.901 307.7C314.635 307.7 316.635 307.467 317.901 307C319.168 306.533 319.801 305.667 319.801 304.4C319.801 303.4 319.435 302.6 318.701 302C317.968 301.333 316.835 300.767 315.301 300.3C313.835 299.767 311.368 299 307.901 298C303.835 296.8 300.635 295.6 298.301 294.4C296.035 293.133 294.301 291.567 293.101 289.7C291.968 287.833 291.401 285.433 291.401 282.5C291.401 277.5 293.368 273.767 297.301 271.3C301.301 268.767 306.701 267.5 313.501 267.5C316.835 267.5 320.268 267.867 323.801 268.6C327.401 269.267 330.168 270.167 332.101 271.3V282.8C330.168 281.533 327.635 280.5 324.501 279.7C321.435 278.9 318.435 278.5 315.501 278.5C312.768 278.5 310.635 278.767 309.101 279.3C307.635 279.833 306.901 280.833 306.901 282.3C306.901 283.567 307.601 284.533 309.001 285.2C310.468 285.867 313.168 286.7 317.101 287.7L319.101 288.2C323.301 289.333 326.568 290.6 328.901 292C331.235 293.333 332.868 294.967 333.801 296.9C334.801 298.767 335.301 301.133 335.301 304C335.301 308.4 333.401 311.933 329.601 314.6C325.801 317.2 320.301 318.5 313.101 318.5ZM38.8113 420H53.4113V425.9C55.6113 423.433 58.2113 421.6 61.2113 420.4C64.278 419.133 67.478 418.5 70.8113 418.5C77.3447 418.5 82.2113 420.267 85.4113 423.8C88.678 427.267 90.3113 431.967 90.3113 437.9V468H75.2113V439.6C75.2113 433.4 72.3447 430.3 66.6113 430.3C64.078 430.3 61.7113 430.933 59.5113 432.2C57.3113 433.4 55.4447 435.2 53.9113 437.6V468H38.8113V420ZM127.235 469.5C121.435 469.5 116.335 468.467 111.935 466.4C107.601 464.267 104.235 461.3 101.835 457.5C99.5014 453.633 98.3348 449.133 98.3348 444C98.3348 439 99.5014 434.567 101.835 430.7C104.235 426.833 107.601 423.833 111.935 421.7C116.335 419.567 121.435 418.5 127.235 418.5C132.968 418.5 138.001 419.567 142.335 421.7C146.735 423.833 150.101 426.833 152.435 430.7C154.835 434.567 156.035 439 156.035 444C156.035 449.133 154.835 453.633 152.435 457.5C150.101 461.3 146.768 464.267 142.435 466.4C138.101 468.467 133.035 469.5 127.235 469.5ZM127.235 457.7C131.301 457.7 134.535 456.467 136.935 454C139.335 451.467 140.535 448.133 140.535 444C140.535 439.733 139.335 436.4 136.935 434C134.601 431.533 131.368 430.3 127.235 430.3C123.101 430.3 119.835 431.533 117.435 434C115.035 436.4 113.835 439.733 113.835 444C113.835 448.133 115.035 451.467 117.435 454C119.901 456.467 123.168 457.7 127.235 457.7ZM155.952 420H171.052L179.852 450L188.452 420H201.052L209.752 450L218.452 420H233.552L217.652 468H203.952L194.752 438.2L185.552 468H171.852L155.952 420ZM240.934 398.1H255.734V446.1H240.934V398.1ZM248.334 469.5C246.001 469.5 244.034 468.733 242.434 467.2C240.834 465.6 240.034 463.667 240.034 461.4C240.034 459.133 240.834 457.233 242.434 455.7C244.034 454.1 246.001 453.3 248.334 453.3C250.601 453.3 252.534 454.1 254.134 455.7C255.734 457.233 256.534 459.133 256.534 461.4C256.534 463.667 255.734 465.6 254.134 467.2C252.534 468.733 250.601 469.5 248.334 469.5ZM263.786 398.1H278.586V446.1H263.786V398.1ZM271.186 469.5C268.852 469.5 266.886 468.733 265.286 467.2C263.686 465.6 262.886 463.667 262.886 461.4C262.886 459.133 263.686 457.233 265.286 455.7C266.886 454.1 268.852 453.3 271.186 453.3C273.452 453.3 275.386 454.1 276.986 455.7C278.586 457.233 279.386 459.133 279.386 461.4C279.386 463.667 278.586 465.6 276.986 467.2C275.386 468.733 273.452 469.5 271.186 469.5ZM286.637 398.1H301.437V446.1H286.637V398.1ZM294.037 469.5C291.704 469.5 289.737 468.733 288.137 467.2C286.537 465.6 285.737 463.667 285.737 461.4C285.737 459.133 286.537 457.233 288.137 455.7C289.737 454.1 291.704 453.3 294.037 453.3C296.304 453.3 298.237 454.1 299.837 455.7C301.437 457.233 302.237 459.133 302.237 461.4C302.237 463.667 301.437 465.6 299.837 467.2C298.237 468.733 296.304 469.5 294.037 469.5Z" fill="#05386B"/>
<defs>
<clipPath id="clip0">
<rect width="297.845" height="265.769" fill="white" transform="translate(83.4709 422)"/>
</clipPath>
</defs>
</svg>
