<svg width="186" height="677" viewBox="0 0 186 677" fill="none" xmlns="http://www.w3.org/2000/svg">
<path d="M92.7619 648.299L172.259 520.292L92.7215 662.223L92.6751 676.787C87.0059 676.733 81.3941 676.526 75.8395 676.167C75.8141 672.86 82.5711 490.91 82.2839 487.619C82.676 487.494 82.896 470.41 83.0516 469.662L0 329.78L83.1408 456.423L83.3887 460.167L88.321 318.804L16.9293 174.042L88.8857 293.965C88.9124 292.041 92.2914 1.79093 92.3247 0C92.3451 0.951316 93.8959 230.982 93.9073 231.952L162.185 139.361L93.8418 251.847L93.4928 378.366L156.854 256.021C77.7799 434.443 95.2794 372.006 93.2598 467.318L185.296 296.96L93.181 491.86L92.7619 648.299Z" fill="#D0CDE1"/>
</svg>
