<svg width="45" height="45" viewBox="0 0 45 45" fill="none" xmlns="http://www.w3.org/2000/svg">
<path fill-rule="evenodd" clip-rule="evenodd" d="M16.6875 3.75H28.2562C33.3375 3.75 37.4438 5.75625 37.5 10.8563V39.3188C37.5 39.6375 37.425 39.9562 37.275 40.2375C37.0312 40.6875 36.6187 41.025 36.1125 41.175C35.625 41.325 35.0813 41.25 34.6313 40.9875L22.4812 34.9125L10.3125 40.9875C10.0331 41.1356 9.7125 41.2313 9.39375 41.2313C8.34375 41.2313 7.5 40.3688 7.5 39.3188V10.8563C7.5 5.75625 11.625 3.75 16.6875 3.75ZM15.4125 18.0375H29.5313C30.3375 18.0375 30.9938 17.3794 30.9938 16.5563C30.9938 15.7313 30.3375 15.075 29.5313 15.075H15.4125C14.6063 15.075 13.95 15.7313 13.95 16.5563C13.95 17.3794 14.6063 18.0375 15.4125 18.0375Z" fill="#62F2AD"/>
<path d="M37.5 10.8563H38.25L38.25 10.848L37.5 10.8563ZM37.275 40.2375L37.9345 40.5947L37.9368 40.5904L37.275 40.2375ZM36.1125 41.175L35.8994 40.4559L35.8919 40.4582L36.1125 41.175ZM34.6313 40.9875L35.0092 40.3397L34.9883 40.3275L34.9667 40.3167L34.6313 40.9875ZM22.4812 34.9125L22.8167 34.2417L22.4815 34.0741L22.1463 34.2415L22.4812 34.9125ZM10.3125 40.9875L9.9775 40.3165L9.96929 40.3206L9.96118 40.3249L10.3125 40.9875ZM28.2562 3H16.6875V4.5H28.2562V3ZM38.25 10.848C38.2193 8.06513 37.0661 6.05499 35.1853 4.77118C33.3446 3.51476 30.8779 3 28.2562 3V4.5C30.7158 4.5 32.8429 4.98837 34.3397 6.01007C35.7964 7.00438 36.7245 8.54737 36.75 10.8645L38.25 10.848ZM38.25 39.3188V10.8563H36.75V39.3188H38.25ZM37.9368 40.5904C38.1481 40.1942 38.25 39.7531 38.25 39.3188H36.75C36.75 39.5219 36.7019 39.7183 36.6132 39.8846L37.9368 40.5904ZM36.3256 41.8941C37.022 41.6877 37.5955 41.2205 37.9345 40.5947L36.6155 39.8803C36.467 40.1545 36.2155 40.3623 35.8994 40.4559L36.3256 41.8941ZM34.2533 41.6353C34.8709 41.9956 35.6307 42.1079 36.3331 41.8918L35.8919 40.4582C35.6193 40.5421 35.2916 40.5044 35.0092 40.3397L34.2533 41.6353ZM22.1458 35.5833L34.2958 41.6583L34.9667 40.3167L22.8167 34.2417L22.1458 35.5833ZM10.6475 41.6585L22.8162 35.5835L22.1463 34.2415L9.9775 40.3165L10.6475 41.6585ZM9.39375 41.9813C9.85807 41.9813 10.2987 41.8437 10.6638 41.6501L9.96118 40.3249C9.7676 40.4275 9.56693 40.4813 9.39375 40.4813V41.9813ZM6.75 39.3188C6.75 40.7733 7.91995 41.9813 9.39375 41.9813V40.4813C8.76755 40.4813 8.25 39.9642 8.25 39.3188H6.75ZM6.75 10.8563V39.3188H8.25V10.8563H6.75ZM16.6875 3C14.0752 3 11.608 3.51474 9.77167 4.77173C7.89409 6.05695 6.75 8.0702 6.75 10.8563H8.25C8.25 8.5423 9.16841 7.00242 10.619 6.00952C12.1107 4.98838 14.2373 4.5 16.6875 4.5V3ZM29.5313 17.2875H15.4125V18.7875H29.5313V17.2875ZM30.2438 16.5563C30.2438 16.9721 29.9165 17.2875 29.5313 17.2875V18.7875C30.7585 18.7875 31.7438 17.7868 31.7438 16.5563H30.2438ZM29.5313 15.825C29.9171 15.825 30.2438 16.1393 30.2438 16.5563H31.7438C31.7438 15.3233 30.7579 14.325 29.5313 14.325V15.825ZM15.4125 15.825H29.5313V14.325H15.4125V15.825ZM14.7 16.5563C14.7 16.1393 15.0267 15.825 15.4125 15.825V14.325C14.1858 14.325 13.2 15.3233 13.2 16.5563H14.7ZM15.4125 17.2875C15.0273 17.2875 14.7 16.9721 14.7 16.5563H13.2C13.2 17.7868 14.1852 18.7875 15.4125 18.7875V17.2875Z" fill="#05386B"/>
</svg>
