<svg width="45" height="45" viewBox="0 0 45 45" fill="none" xmlns="http://www.w3.org/2000/svg">
<path d="M13.125 7.75H13.375V7.5V4H16.625V7.5V7.75H16.875H28.125H28.375V7.5V4H31.625V7.5V7.75H31.875H35.625C37.558 7.75 39.125 9.317 39.125 11.25V37.5C39.125 39.433 37.558 41 35.625 41H9.375C7.442 41 5.875 39.433 5.875 37.5V11.25C5.875 9.317 7.442 7.75 9.375 7.75H13.125ZM9.375 18.5H9.125V18.75V37.5V37.75H9.375H35.625H35.875V37.5V18.75V18.5H35.625H9.375ZM9.375 11H9.125V11.25V15V15.25H9.375H35.625H35.875V15V11.25V11H35.625H9.375ZM24.375 26.5H27.875V29.75H24.375H24.125V30V33.5H20.875V30V29.75H20.625H17.125V26.5H20.625H20.875V26.25V22.75H24.125V26.25V26.5H24.375Z" fill="#62F2AD" stroke="#05386B" stroke-width="0.5"/>
</svg>
