<svg width="60" height="67" viewBox="0 0 60 67" fill="none" xmlns="http://www.w3.org/2000/svg">
<g filter="url(#filter0_d)">
<path fill-rule="evenodd" clip-rule="evenodd" d="M10.3205 5H49.6795C52.6191 5 55 7.45263 55 10.4806V14.3094C55 15.7783 54.426 17.1889 53.4067 18.2177L37.1441 34.6675C36.8636 34.9539 36.4826 35.113 36.0888 35.1103L22.4723 35.0679C22.0579 35.0679 21.6641 34.8903 21.381 34.58L6.43629 18.1434C5.51223 17.1279 5 15.7863 5 14.3942V10.4833C5 7.45528 7.38095 5 10.3205 5ZM23.2006 39.5601L35.337 39.5973C36.0938 39.5999 36.7064 40.2336 36.7064 41.0105V47.8382C36.7064 48.6177 36.2637 49.323 35.5738 49.6491L24.5571 54.8222C24.2997 54.9415 24.0269 54.9999 23.754 54.9999C23.3911 54.9999 23.0281 54.8938 22.7115 54.6843C22.1581 54.3184 21.8235 53.6874 21.8235 53.0112V40.9734C21.8235 40.1912 22.4413 39.5575 23.2006 39.5601Z" fill="#05386B"/>
</g>
<defs>
<filter id="filter0_d" x="-4" y="0" width="68" height="72" filterUnits="userSpaceOnUse" color-interpolation-filters="sRGB">
<feFlood flood-opacity="0" result="BackgroundImageFix"/>
<feColorMatrix in="SourceAlpha" type="matrix" values="0 0 0 0 0 0 0 0 0 0 0 0 0 0 0 0 0 0 127 0"/>
<feOffset dy="8"/>
<feGaussianBlur stdDeviation="2"/>
<feColorMatrix type="matrix" values="0 0 0 0 0.591667 0 0 0 0 0.591667 0 0 0 0 0.591667 0 0 0 0.25 0"/>
<feBlend mode="normal" in2="BackgroundImageFix" result="effect1_dropShadow"/>
<feBlend mode="normal" in="SourceGraphic" in2="effect1_dropShadow" result="shape"/>
</filter>
</defs>
</svg>
